<svg xmlns="http://www.w3.org/2000/svg" version="1.1" xmlns:xlink="http://www.w3.org/1999/xlink" xmlns:svgjs="http://svgjs.dev/svgjs" width="2000" height="1247" viewBox="0 0 2000 1247"><g transform="matrix(1,0,0,1,-1.2121212121212466,0.504858299595071)"><svg viewBox="0 0 396 247" data-background-color="#ffffff" preserveAspectRatio="xMidYMid meet" height="1247" width="2000" xmlns="http://www.w3.org/2000/svg" xmlns:xlink="http://www.w3.org/1999/xlink"><g id="tight-bounds" transform="matrix(1,0,0,1,0.2400000000000091,-0.09999999999999432)"><svg viewBox="0 0 395.52 247.2" height="247.2" width="395.52"><g><svg></svg></g><g><svg viewBox="0 0 395.52 247.2" height="247.2" width="395.52"><g transform="matrix(1,0,0,1,128.5394282694848,47.215199999999996)"><svg viewBox="0 0 138.44114346103038 152.7696" height="152.7696" width="138.44114346103038"><g><svg viewBox="0 0 138.44114346103038 152.7696" height="152.7696" width="138.44114346103038"><g><svg viewBox="0 0 138.44114346103038 152.7696" height="152.7696" width="138.44114346103038"><g><svg viewBox="0 0 138.44114346103038 152.7696" height="152.7696" width="138.44114346103038"><g id="textblocktransform"><svg viewBox="0 0 138.44114346103038 152.7696" height="152.7696" width="138.44114346103038" id="textblock"><g><svg viewBox="0 0 138.44114346103038 152.7696" height="152.7696" width="138.44114346103038"><g transform="matrix(1,0,0,1,0,0)"><svg width="138.44114346103038" viewBox="1.8 -37.3 34.300000000000004 37.849999999999994" height="152.7696" data-palette-color="#2ecc40"><path d="M18.55-24.65L14.4-11.8 22.2-11.8 18.55-24.65ZM36.1-2.3Q35.5-1 34.08-0.23 32.65 0.55 30.7 0.55 28.75 0.55 27.5-0.43 26.25-1.4 25.25-3.9L25.25-3.9 24.05-7 12.7-7 11.45-3.5Q10.05 0.55 6.7 0.55L6.7 0.55Q5.1 0.55 3.68-0.18 2.25-0.9 1.8-2L1.8-2Q2.65-2.35 3.23-3.18 3.8-4 4.5-5.75L4.5-5.75 14.75-32.2Q13.85-34.15 12.8-34.9L12.8-34.9Q14.35-37.3 17.6-37.3L17.6-37.3Q20.1-37.3 21.25-35.95 22.4-34.6 23.7-31.1L23.7-31.1 32.65-6.9Q33.95-3.35 36.1-2.3L36.1-2.3Z" opacity="1" transform="matrix(1,0,0,1,0,0)" fill="#000000" class="wordmark-text-0" data-fill-palette-color="primary" id="text-0"></path></svg></g></svg></g></svg></g></svg></g></svg></g></svg></g></svg></g><g><path d="M192.821 0c30.402 0 58.24 10.976 79.768 29.183l-11.147 0c-19.26-14.022-42.974-22.294-68.621-22.295-25.647 0-49.361 8.272-68.622 22.295l-11.147 0c21.528-18.206 49.366-29.183 79.769-29.183zM192.821 247.2c-30.402 0-58.24-10.976-79.769-29.183l11.147 0c19.26 14.022 42.974 22.294 68.622 22.295 25.647 0 49.361-8.272 68.621-22.295l11.147 0c-21.528 18.206-49.366 29.183-79.768 29.183z" fill="#000000" stroke="transparent" data-fill-palette-color="tertiary"></path></g></svg></g><defs></defs></svg><rect width="395.52" height="247.2" fill="none" stroke="none" visibility="hidden"></rect></g></svg></g></svg>